<svg xmlns="http://www.w3.org/2000/svg" xmlns:xlink="http://www.w3.org/1999/xlink" viewBox="0 0 880 280" width="880" height="280">


  <rect width="880" height="280" fill="#0b0c10"/>
  <rect x="0.5" y="0.5" width="879" height="279" fill="none" stroke="#26282e"/>

  <!-- header row -->
  <text x="56" y="46" font-family="ui-monospace,'Fira Code',monospace" font-size="11.5" letter-spacing="3" fill="#8a8778">SYSTEMS ENGINEER · B.S. SOFTWARE ENGINEERING</text>
  <text x="824" y="46" font-family="ui-monospace,'Fira Code',monospace" font-size="11.5" letter-spacing="3" fill="#8a8778" text-anchor="end">SÃO PAULO · BR</text>
  <line x1="56" y1="60" x2="824" y2="60" stroke="#26282e" stroke-width="1"/>

  <!-- name -->
  <text x="54" y="154" font-family="Georgia,'Times New Roman',serif" font-size="76" fill="#ece9df">Thiago <tspan fill="#e5484d" font-style="italic">Araújo</tspan></text>

  <!-- sub-line -->
  <text x="56" y="198" font-family="ui-monospace,'Fira Code',monospace" font-size="14.5" fill="#a8a395">end-to-end systems — schema → api → ui → deploy</text>

  <!-- rotating stamp -->
  <g>
    <circle cx="762" cy="138" r="34" fill="none" stroke="#26282e" stroke-width="1"/>
    <circle cx="762" cy="138" r="58" fill="none" stroke="#a8a395" stroke-width="7" stroke-dasharray="0.5 13.4" stroke-linecap="round">
      <animateTransform attributeName="transform" type="rotate" from="0 762 138" to="360 762 138" dur="42s" repeatCount="indefinite"/>
    </circle>
    <text x="762" y="214" font-family="ui-monospace,'Fira Code',monospace" font-size="9.5" letter-spacing="2" fill="#565b63" text-anchor="middle">THISUX.TECH</text>
    <g fill="#e5484d">
      <animateTransform attributeName="transform" type="rotate" from="0 762 138" to="360 762 138" dur="60s" repeatCount="indefinite"/>
      <path d="M 762 118 Q 767 133 782 138 Q 767 143 762 158 Q 757 143 742 138 Q 757 133 762 118 Z"/>
    </g>
  </g>

  <!-- footer -->
  <line x1="56" y1="228" x2="824" y2="228" stroke="#26282e" stroke-width="1"/>
  <g font-family="ui-monospace,'Fira Code',monospace" font-size="11" letter-spacing="2.5" fill="#8a8778">
    <rect x="58" y="243" width="7" height="7" fill="#e5484d" transform="rotate(45 61.5 246.5)"/>
    <text x="74" y="252">PRODUCT SYSTEMS</text>
    <rect x="328" y="243" width="7" height="7" fill="#e5484d" transform="rotate(45 331.5 246.5)"/>
    <text x="344" y="252">ML &amp; DATA</text>
    <rect x="560" y="243" width="7" height="7" fill="#e5484d" transform="rotate(45 563.5 246.5)"/>
    <text x="576" y="252">AGENTS &amp; AUTOMATION</text>
  </g>
</svg>
